<?xml version="1.0" encoding="UTF-8" standalone="no"?>
<!DOCTYPE svg PUBLIC "-//W3C//DTD SVG 1.1//EN" "http://www.w3.org/Graphics/SVG/1.1/DTD/svg11.dtd">
<svg width="100%" height="100%" viewBox="0 0 1206 2622" version="1.1" xmlns="http://www.w3.org/2000/svg" xmlns:xlink="http://www.w3.org/1999/xlink" xml:space="preserve" xmlns:serif="http://www.serif.com/" style="fill-rule:evenodd;clip-rule:evenodd;stroke-linejoin:round;stroke-miterlimit:2;">
    <g transform="matrix(1,0,0,1,-726.314,-25.7712)">
        <g id="Ebene2">
            <path d="M2088.61,2594.44C2081.81,2675.06 2014.38,2738.46 1932.31,2738.46C1898.73,2738.46 1867.59,2727.84 1842.06,2709.76C1789.85,2751.26 1712.85,2777.52 1627.05,2777.52C1536.14,2777.52 1455.12,2748.05 1402.98,2702.2C1361.42,2750.07 1297.51,2780.76 1225.89,2780.76C1175.35,2780.76 1128.65,2765.48 1090.93,2739.67C1051.53,2783.95 993.614,2811.93 929.092,2811.93C858.328,2811.93 795.508,2778.27 756.35,2726.37C746.627,2728.26 736.585,2729.26 726.314,2729.26C639.742,2729.26 569.457,2658.71 569.457,2571.81C569.457,2484.91 639.742,2423.57 726.314,2423.57C751.895,2423.57 776.054,2426.03 797.399,2434.25C833.783,2406.47 879.486,2389.93 929.092,2389.93C977.263,2389.93 1021.75,2405.53 1057.6,2431.86C1099.11,2389.5 1159.15,2362.87 1225.89,2362.87C1302.84,2362.87 1370.89,2398.28 1411.88,2452.37C1442.98,2427.61 1511.39,2362.87 1638.41,2379.91C1714.55,2390.13 1768.25,2434.77 1795.63,2463.46C1828.6,2438.82 1877.62,2423.57 1932.31,2423.57C2031.48,2423.57 2112,2474.58 2112,2537.86C2112,2558.43 2103.49,2577.74 2088.61,2594.44Z" style="fill:white;"/>
        </g>
    </g>
</svg>
