<?xml version="1.0" encoding="UTF-8" standalone="no"?>
<!DOCTYPE svg PUBLIC "-//W3C//DTD SVG 1.1//EN" "http://www.w3.org/Graphics/SVG/1.1/DTD/svg11.dtd">
<svg width="100%" height="100%" viewBox="0 0 1846 569" version="1.1" xmlns="http://www.w3.org/2000/svg" xmlns:xlink="http://www.w3.org/1999/xlink" xml:space="preserve" xmlns:serif="http://www.serif.com/" style="fill-rule:evenodd;clip-rule:evenodd;stroke-linejoin:round;stroke-miterlimit:2;">
    <g transform="matrix(1,0,0,1,319.632,-2217.93)">
        <g id="Ebene3" opacity="0.45">
            <g transform="matrix(1,0,0,1,-375.383,194.139)">
                <ellipse cx="375.383" cy="2307.91" rx="319.632" ry="284.118" style="fill:white;"/>
            </g>
            <g transform="matrix(1,0,0,1,830.617,194.139)">
                <ellipse cx="375.383" cy="2307.91" rx="319.632" ry="284.118" style="fill:white;"/>
            </g>
            <g transform="matrix(1,0,0,1,830.617,194.139)">
                <ellipse cx="375.383" cy="2307.91" rx="319.632" ry="284.118" style="fill:white;"/>
            </g>
            <g transform="matrix(0.8125,0,0,0.893229,557.703,440.556)">
                <ellipse cx="375.383" cy="2307.91" rx="319.632" ry="284.118" style="fill:white;"/>
            </g>
            <g transform="matrix(0.686574,0,0,0.893229,271.135,443.38)">
                <ellipse cx="375.383" cy="2307.91" rx="319.632" ry="284.118" style="fill:white;"/>
            </g>
            <g transform="matrix(0.777993,0,0,0.974479,-26.7997,245.788)">
                <ellipse cx="375.383" cy="2307.91" rx="319.632" ry="284.118" style="fill:white;"/>
            </g>
        </g>
    </g>
</svg>
