<?xml version="1.0" encoding="UTF-8" standalone="no"?>
<!DOCTYPE svg PUBLIC "-//W3C//DTD SVG 1.1//EN" "http://www.w3.org/Graphics/SVG/1.1/DTD/svg11.dtd">
<svg width="100%" height="100%" viewBox="0 0 1520 418" version="1.1" xmlns="http://www.w3.org/2000/svg" xmlns:xlink="http://www.w3.org/1999/xlink" xml:space="preserve" xmlns:serif="http://www.serif.com/" style="fill-rule:evenodd;clip-rule:evenodd;stroke-linejoin:round;stroke-miterlimit:2;">
    <g transform="matrix(1,0,0,1,156.857,-2337.1)">
        <g transform="matrix(1,0,0,1,-726.314,-25.7712)">
            <g id="Ebene2">
                <path d="M820.185,2697.93C794.004,2717.6 761.504,2729.26 726.314,2729.26C639.742,2729.26 569.457,2658.71 569.457,2571.81C569.457,2484.91 639.742,2423.57 726.314,2423.57C766.684,2423.57 803.513,2429.7 831.325,2454.89C857.506,2435.22 890.006,2423.56 925.196,2423.56C966.002,2423.56 1003.19,2439.23 1031.1,2464.91C1070.69,2403.81 1143.14,2362.87 1225.89,2362.87C1302.84,2362.87 1370.89,2398.28 1411.88,2452.37C1442.98,2427.61 1511.39,2362.87 1638.41,2379.91C1752.77,2395.26 1816.49,2488.24 1816.49,2488.24C1842.02,2470.17 1898.73,2423.56 1932.31,2423.56C2018.88,2423.56 2089.17,2494.11 2089.17,2581.01C2089.17,2667.91 2018.88,2738.46 1932.31,2738.46C1898.73,2738.46 1867.59,2727.84 1842.06,2709.76C1789.85,2751.26 1712.85,2777.52 1627.05,2777.52C1536.14,2777.52 1455.12,2748.05 1402.98,2702.2C1361.42,2750.07 1297.51,2780.76 1225.89,2780.76C1148.18,2780.76 1079.55,2744.64 1038.69,2689.64C1010.12,2719.71 969.822,2738.46 925.196,2738.46C884.825,2738.46 847.996,2723.11 820.185,2697.93Z" style="fill:white;"/>
            </g>
        </g>
    </g>
</svg>
