<?xml version="1.0" encoding="UTF-8" standalone="no"?>
<!DOCTYPE svg PUBLIC "-//W3C//DTD SVG 1.1//EN" "http://www.w3.org/Graphics/SVG/1.1/DTD/svg11.dtd">
<svg width="100%" height="100%" viewBox="0 0 2604 579" version="1.1" xmlns="http://www.w3.org/2000/svg" xmlns:xlink="http://www.w3.org/1999/xlink" xml:space="preserve" xmlns:serif="http://www.serif.com/" style="fill-rule:evenodd;clip-rule:evenodd;stroke-linecap:round;stroke-miterlimit:2;">
  <g>
    <g>
      <ellipse cx="1309.85" cy="117.101" rx="116.017" ry="117.101" style="fill:#F44336;" />
    </g>
    <path d="M1143.64,220.119c55.187,14.083 64.204,60.539 63.584,71.618c-1.724,30.969 -4.237,55.537 1.098,73.705c8.409,28.643 22.863,50.714 43.358,66.219c6.806,5.151 14.114,9.447 21.925,12.887c12.12,5.411 14.165,29.023 14.165,47.553c0.283,2.053 0.283,4.141 0.283,6.245c-0,13.364 -6.323,25.979 -17.129,34.192c-10.807,8.218 -24.898,11.115 -38.186,7.857c-24.023,-5.969 -45.724,-14.057 -65.093,-24.298c-46.156,-24.393 -79.101,-59.69 -98.835,-105.901c-14.452,-33.846 -11.929,-76.768 -10.956,-128.772c0.386,-23.67 25.765,-76.622 85.786,-61.305Z" style="fill:#F44336;stroke:#F44336;stroke-width:33.2px;" />
    <path d="M1478.61,220.119c-55.187,14.083 -64.205,60.539 -63.585,71.618c1.724,30.969 4.238,55.537 -1.097,73.705c-8.41,28.643 -22.863,50.714 -43.358,66.219c-6.807,5.151 -14.115,9.447 -21.925,12.887c-12.121,5.411 -14.165,29.023 -14.165,47.553c-0.283,2.053 -0.283,4.141 -0.283,6.245c-0,13.364 6.322,25.979 17.129,34.192c10.806,8.218 24.898,11.115 38.186,7.857c24.023,-5.969 45.723,-14.057 65.092,-24.298c46.156,-24.393 79.101,-59.69 98.835,-105.901c14.452,-33.846 11.929,-76.768 10.956,-128.772c-0.386,-23.67 -25.765,-76.622 -85.785,-61.305Z" style="fill:#F44336;stroke:#F44336;stroke-width:33.2px;" />
  </g>
  <path d="M447.347,391.607c0,-81.078 -37.417,-149.184 -166.3,-183.237c-32.428,-7.297 -54.879,-20.269 -54.879,-42.16c0,-39.728 112.253,-21.891 145.513,-17.027c38.249,5.676 60.699,-17.837 60.699,-67.294l0,-2.433c0,-76.213 -69.846,-79.456 -144.681,-79.456c-177.109,0 -269.406,53.511 -269.406,175.939c0,61.62 17.462,131.347 160.48,168.642c32.428,8.108 52.384,21.081 52.384,41.35c0,40.539 -137.197,35.675 -170.457,30.81c-38.249,-5.676 -60.7,17.837 -60.7,75.402l-0,2.433c-0,77.835 69.846,81.078 152.996,81.078c188.751,-0 294.351,-57.566 294.351,-184.047Z" style="fill:#4FA3E0;fill-rule:nonzero;" />
  <path d="M636.098,312.961l23.282,-10.54l19.124,34.053l97.286,183.236c19.124,35.674 47.395,51.89 88.97,51.89l55.711,-0c48.227,-0 74.835,-25.945 74.835,-72.97l-0,-421.606c-0,-47.025 -26.608,-72.97 -74.835,-72.97l-41.575,-0c-48.227,-0 -74.835,25.945 -74.835,72.97l-0,89.186c-0,31.62 26.608,73.781 41.575,101.347l-21.619,11.351l-19.956,-38.917l-97.286,-183.236c-19.124,-35.675 -47.395,-52.701 -88.97,-52.701l-55.711,-0c-48.227,-0 -74.835,25.945 -74.835,72.97l0,421.606c0,47.025 26.608,72.97 74.835,72.97l41.575,-0c48.227,-0 74.835,-25.945 74.835,-72.97l0,-77.835c0,-36.485 -31.597,-86.754 -42.406,-107.834Z" style="fill:#2FA45A;fill-rule:nonzero;" />
  <path d="M1993.94,461.334l24.113,-0l-6.652,23.512c-18.293,64.052 23.282,86.754 71.509,86.754l28.271,-0c48.227,-0 74.835,-25.945 74.835,-72.97l0,-165.399c0,-47.026 -26.608,-72.971 -74.835,-72.971l-126.388,0c-48.227,0 -74.835,21.891 -74.835,61.62c0,39.728 26.608,62.43 74.835,62.43l22.451,-0c-16.63,33.242 -48.227,50.268 -100.612,50.268c-71.509,0 -113.084,-55.944 -113.084,-147.562c-0,-79.456 44.901,-145.13 113.084,-145.13c29.934,0 53.216,10.541 70.678,27.567c19.124,20.269 34.091,31.62 60.699,31.62l51.553,0c55.711,0 88.971,-36.485 59.037,-83.51c-43.238,-68.916 -120.568,-117.563 -243.63,-117.563c-202.055,0 -287.699,140.265 -287.699,278.908c-0,183.237 85.644,297.556 271.9,297.556c74.836,0 92.297,-78.645 104.77,-115.13Z" style="fill:#F07AB0;fill-rule:nonzero;" />
  <path d="M2427.98,417.552l1.663,-341.339c-0,-47.025 -26.608,-72.97 -74.835,-72.97l-43.238,0c-48.227,0 -74.835,25.945 -74.835,72.97l-0,422.417c-0,47.025 26.608,72.97 74.835,72.97l217.021,0.811c48.227,-0 74.835,-24.324 74.835,-68.917c0,-44.593 -26.608,-68.105 -74.835,-68.916l-83.981,-0.811c-10.81,0 -16.63,-5.675 -16.63,-16.215Z" style="fill:#F5CF48;fill-rule:nonzero;" />
</svg>
